<svg xmlns="http://www.w3.org/2000/svg" viewBox="0 0 198.21 198.79"><defs><style>.cls-1{fill:#fff}</style></defs><title>Asset 1</title><g id="Layer_2" data-name="Layer 2"><path class="cls-1" d="M189.12 133.75a10.94 10.94 0 0 1-6.59 14l-3.77 1.34c-5.69 2-10.69 8.62-11.11 14.64l-.28 4a10.93 10.93 0 0 1-11.72 10.12l-4-.3c-6-.46-13.27 3.53-16.11 8.86l-1.88 3.53a10.93 10.93 0 0 1-14.82 4.47l-3.52-1.9C110 189.63 101.81 190.32 97 194l-3.15 2.46a10.93 10.93 0 0 1-15.36-1.94l-2.44-3.16c-3.69-4.78-11.5-7.5-17.36-6l-3.88 1a10.93 10.93 0 0 1-13.24-8l-.94-3.88c-1.42-5.87-7.46-11.53-13.4-12.58l-3.93-.69a10.94 10.94 0 0 1-8.83-12.71l.72-3.93c1.08-5.94-2.12-13.56-7.12-16.94l-3.27-2.31a10.93 10.93 0 0 1-2.9-15.21l2.25-3.3c3.4-5 3.58-13.25.38-18.37l-2.11-3.38A10.93 10.93 0 0 1 6 70l3.4-2.1c5.14-3.17 8.66-10.65 7.82-16.63l-.55-4A10.94 10.94 0 0 1 26 35l4-.53c6-.8 12.24-6.21 13.91-12L45 18.59a10.93 10.93 0 0 1 13.56-7.46l3.83 1.12c5.79 1.7 13.71-.69 17.59-5.31l2.57-3.06a10.93 10.93 0 0 1 15.43-1.3l3 2.59c4.6 3.91 12.81 4.95 18.23 2.3l3.59-1.75a10.93 10.93 0 0 1 14.62 5.09l1.73 3.6c2.61 5.44 9.69 9.73 15.72 9.52l4-.14a10.94 10.94 0 0 1 11.29 10.6l.11 4c.18 6 4.9 12.83 10.49 15.09l3.7 1.5a10.94 10.94 0 0 1 6 14.27l-1.52 3.69c-2.29 5.58-.75 13.71 3.44 18.05l2.77 2.87a10.94 10.94 0 0 1-.32 15.48l-2.89 2.76c-4.37 4.17-6.25 12.22-4.19 17.89z" id="Layer_1-2" data-name="Layer 1"/></g></svg>